# xmcd
#
# Track frame offsets:
#	150
#	11795
#	29406
#	48171
#	64614
#	88359
#	117133
#	139048
#	156531
#	167894
#
# Disc length: 2486 seconds
#
# Revision: 0
# Processed by: cddbd v1.5.1PL0 Copyright (c) Steve Scherf et al.
# Submitted via: audiograbber 1.83.01
#
DISCID=8709b40a
DTITLE=the Pillows - Please Mr.lostman
DYEAR=1997
DGENRE=Rock
TTITLE0=Stalker
TTITLE1=Trip Dancer
TTITLE2=Moon Is Mine
TTITLE3=Ice Pick
TTITLE4=Today, She
TTITLE5=Strange Chameleon (Original Story)
TTITLE6=Swanky Street
TTITLE7=Suicide Diving
TTITLE8=Girls Don't Cry
TTITLE9=Please Mr.lostman
EXTD=YEAR: 1997
EXTT0=
EXTT1=
EXTT2=
EXTT3=
EXTT4=
EXTT5=
EXTT6=
EXTT7=
EXTT8=
EXTT9=
PLAYORDER=
